# xmcd
#
# Track frame offsets:
#	150
#	4851
#	16311
#	26556
#	36666
#	45925
#	62484
#	74063
#	84846
#	94969
#	108580
#	120361
#	129524
#
# Disc length: 1867 seconds
# Revision: 0
# Processed by: cddbd v1.5.2PL0 Copyright (c) Steve Scherf et al.
# Submitted via: dBpowerAMP V12.0
#
DISCID=a507490d
DTITLE=David Price - A Texas Songwriter
DYEAR=1900
DGENRE=Country
TTITLE0=Intro - Deep in the Heart of Texas
TTITLE1=Texas Sound
TTITLE2=I Love Texas More Than You
TTITLE3=Brand New Day
TTITLE4=One Last Time
TTITLE5=Rodeo Fever
TTITLE6=Too Long Lonely
TTITLE7=You Didn't Have a Heart
TTITLE8=Take Me Back To Texas
TTITLE9=You Touched My Heart
TTITLE10=Love of My Life
TTITLE11=Cab-Over Pete
TTITLE12=Too Many Exes in Texas
EXTD=
EXTT0=
EXTT1=
EXTT2=
EXTT3=
EXTT4=
EXTT5=
EXTT6=
EXTT7=
EXTT8=
EXTT9=
EXTT10=
EXTT11=
EXTT12=
PLAYORDER=
